<?xml version="1.0" standalone="no"?><!DOCTYPE svg PUBLIC "-//W3C//DTD SVG 1.1//EN" "http://www.w3.org/Graphics/SVG/1.1/DTD/svg11.dtd"><svg t="1740386820038" class="icon" viewBox="0 0 1024 1024" version="1.1" xmlns="http://www.w3.org/2000/svg" p-id="5860" xmlns:xlink="http://www.w3.org/1999/xlink" width="32" height="32"><path d="M745.2 773.1H428.1c-14.9 0-28 13.1-28 28v56c0 14.9 13.1 28 28 28h317.1c14.9 0 28-13.1 28-28v-56c-0.1-14.9-13.1-28-28-28z m186.5-186.5H428.1c-14.9 0-28 13.1-28 28v56c0 14.9 13.1 28 28 28h503.6c14.9 0 28-13.1 28-28v-56c0-14.9-13.1-28-28-28z m-634.2 0H92.3c-14.9 0-28 13.1-28 28v242.5c0 14.9 13.1 28 28 28h205.2c14.9 0 28-13.1 28-28V614.6c0-14.9-13.1-28-28-28z m130.6-149.2h317.1c14.9 0 28-13.1 28-28v-56c0-14.9-13.1-28-28-28H428.1c-14.9 0-28 13.1-28 28v56c0 14.9 13 28 28 28zM931.7 139H428.1c-14.9 0-28 13.1-28 28v56c0 14.9 13.1 28 28 28h503.6c14.9 0 28-13.1 28-28v-56c0-15-13.1-28-28-28z m-634.2 0H92.3c-14.9 0-28 13.1-28 28v242.5c0 14.9 13.1 28 28 28h205.2c14.9 0 28-13.1 28-28V166.9c0-14.9-13.1-27.9-28-27.9z" p-id="5861" fill="#028eca"></path></svg>